<svg width="53" height="46" viewBox="0 0 53 46" fill="none" xmlns="http://www.w3.org/2000/svg">
<g clip-path="url(#clip0_1_311)">
<path d="M13.5353 15.129C16.3151 9.98065 19.0169 4.97419 21.6993 0C22.8229 0 23.4529 0.593548 24.1284 0.593548C24.8428 0.593548 25.6092 0 26.7912 0C34.8643 14.9677 42.9373 29.9419 51.0168 44.9226C45.1975 47.5419 37.3972 45.0323 34.5395 39.8C32.3053 35.7097 29.9672 31.6774 27.7979 27.5548C24.9987 22.2258 21.1083 18.6968 15.1071 18.0774C13.6782 17.929 12.8469 16.3871 13.5288 15.129H13.5353Z" fill="#EAC5DD"/>
<path d="M11.1777 21.6C10.8919 29.1807 17.5621 35.1871 25.3493 33.529C26.7977 33.2194 28.0772 34.5548 27.7069 35.9807C26.4535 40.7871 21.4395 45.2581 15.8799 45.8774C7.81336 46.7742 0.785986 41.1032 0.0520734 33.0903C-0.474006 27.3613 2.8968 21.7355 7.7679 19.4065C9.37861 18.6387 11.2426 19.8194 11.1777 21.5936V21.6Z" fill="#EAC5DD"/>
</g>
<defs>
<clipPath id="clip0_1_311">
<rect width="53" height="46" fill="white"/>
</clipPath>
</defs>
</svg>
